<?xml version="1.0" encoding="UTF-8" standalone="no"?>
<!DOCTYPE svg PUBLIC "-//W3C//DTD SVG 1.1//EN"
 "http://www.w3.org/Graphics/SVG/1.1/DTD/svg11.dtd">
<!-- Generated by graphviz version 2.47.0 (20210316.0004)
 -->
<!-- Title: dependencies Pages: 1 -->
<svg width="1284pt" height="284pt"
 viewBox="0.00 0.00 1284.00 284.00" xmlns="http://www.w3.org/2000/svg" xmlns:xlink="http://www.w3.org/1999/xlink">
<g id="graph0" class="graph" transform="scale(1 1) rotate(0) translate(4 280)">
<title>dependencies</title>
<polygon fill="white" stroke="transparent" points="-4,4 -4,-280 1280,-280 1280,4 -4,4"/>
<text text-anchor="start" x="617.01" y="-42.4" font-family="Times-12" font-weight="bold" font-size="14.00">Legend</text>
<polygon fill="#ffffb3" stroke="transparent" points="404,-10 404,-30 424,-30 424,-10 404,-10"/>
<text text-anchor="start" x="427.63" y="-15.4" font-family="Times-12" font-size="14.00"> &#160;Declarations</text>
<polygon fill="#8dd3c7" stroke="transparent" points="517,-10 517,-30 537,-30 537,-10 517,-10"/>
<text text-anchor="start" x="540.73" y="-15.4" font-family="Times-12" font-size="14.00"> &#160;Module</text>
<polygon fill="#80b1d3" stroke="transparent" points="603,-10 603,-30 623,-30 623,-10 603,-10"/>
<text text-anchor="start" x="626.78" y="-15.4" font-family="Times-12" font-size="14.00"> &#160;Bootstrap</text>
<polygon fill="#fdb462" stroke="transparent" points="700,-10 700,-30 720,-30 720,-10 700,-10"/>
<text text-anchor="start" x="723.67" y="-15.4" font-family="Times-12" font-size="14.00"> &#160;Providers</text>
<polygon fill="#fb8072" stroke="transparent" points="796,-10 796,-30 816,-30 816,-10 796,-10"/>
<text text-anchor="start" x="819.73" y="-15.4" font-family="Times-12" font-size="14.00"> &#160;Exports</text>
<g id="clust1" class="cluster">
<title>cluster_AppModule</title>
<polygon fill="none" stroke="black" stroke-dasharray="1,5" points="8,-70 8,-268 1268,-268 1268,-70 8,-70"/>
</g>
<g id="clust2" class="cluster">
<title>cluster_AppModule_declarations</title>
<polygon fill="none" stroke="black" points="168,-78 168,-130 1260,-130 1260,-78 168,-78"/>
</g>
<g id="clust15" class="cluster">
<title>cluster_AppModule_imports</title>
<polygon fill="none" stroke="black" points="16,-78 16,-130 160,-130 160,-78 16,-78"/>
</g>
<g id="clust17" class="cluster">
<title>cluster_AppModule_bootstrap</title>
<polygon fill="none" stroke="black" points="584,-208 584,-260 654,-260 654,-208 584,-208"/>
</g>
<!-- App -->
<g id="node1" class="node">
<title>App</title>
<polygon fill="#ffffb3" stroke="black" points="1252,-122 1198,-122 1198,-86 1252,-86 1252,-122"/>
<text text-anchor="middle" x="1225" y="-99.8" font-family="Times,serif" font-size="14.00">App</text>
</g>
<!-- AppModule -->
<g id="node13" class="node">
<title>AppModule</title>
<polygon fill="#8dd3c7" stroke="black" points="660.66,-187 657.66,-191 636.66,-191 633.66,-187 577.34,-187 577.34,-151 660.66,-151 660.66,-187"/>
<text text-anchor="middle" x="619" y="-164.8" font-family="Times,serif" font-size="14.00">AppModule</text>
</g>
<!-- App&#45;&gt;AppModule -->
<g id="edge1" class="edge">
<title>App&#45;&gt;AppModule</title>
<path fill="none" stroke="black" d="M1225,-122.25C1225,-145.02 1225,-181 1225,-181 1225,-181 671.13,-181 671.13,-181"/>
<polygon fill="black" stroke="black" points="671.13,-177.5 661.13,-181 671.13,-184.5 671.13,-177.5"/>
</g>
<!-- AuditoriaComponent -->
<g id="node2" class="node">
<title>AuditoriaComponent</title>
<polygon fill="#ffffb3" stroke="black" points="1180.49,-122 1045.51,-122 1045.51,-86 1180.49,-86 1180.49,-122"/>
<text text-anchor="middle" x="1113" y="-99.8" font-family="Times,serif" font-size="14.00">AuditoriaComponent</text>
</g>
<!-- AuditoriaComponent&#45;&gt;AppModule -->
<g id="edge2" class="edge">
<title>AuditoriaComponent&#45;&gt;AppModule</title>
<path fill="none" stroke="black" d="M1113,-122.28C1113,-143.32 1113,-175 1113,-175 1113,-175 670.69,-175 670.69,-175"/>
<polygon fill="black" stroke="black" points="670.69,-171.5 660.69,-175 670.69,-178.5 670.69,-171.5"/>
</g>
<!-- Busqueda -->
<g id="node3" class="node">
<title>Busqueda</title>
<polygon fill="#ffffb3" stroke="black" points="1027.71,-122 956.29,-122 956.29,-86 1027.71,-86 1027.71,-122"/>
<text text-anchor="middle" x="992" y="-99.8" font-family="Times,serif" font-size="14.00">Busqueda</text>
</g>
<!-- Busqueda&#45;&gt;AppModule -->
<g id="edge3" class="edge">
<title>Busqueda&#45;&gt;AppModule</title>
<path fill="none" stroke="black" d="M992,-122.11C992,-141.34 992,-169 992,-169 992,-169 670.7,-169 670.7,-169"/>
<polygon fill="black" stroke="black" points="670.7,-165.5 660.7,-169 670.7,-172.5 670.7,-165.5"/>
</g>
<!-- HistorialComponent -->
<g id="node4" class="node">
<title>HistorialComponent</title>
<polygon fill="#ffffb3" stroke="black" points="938.32,-122 807.68,-122 807.68,-86 938.32,-86 938.32,-122"/>
<text text-anchor="middle" x="873" y="-99.8" font-family="Times,serif" font-size="14.00">HistorialComponent</text>
</g>
<!-- HistorialComponent&#45;&gt;AppModule -->
<g id="edge4" class="edge">
<title>HistorialComponent&#45;&gt;AppModule</title>
<path fill="none" stroke="black" d="M873,-122.02C873,-139.37 873,-163 873,-163 873,-163 670.66,-163 670.66,-163"/>
<polygon fill="black" stroke="black" points="670.66,-159.5 660.66,-163 670.66,-166.5 670.66,-159.5"/>
</g>
<!-- Login -->
<g id="node5" class="node">
<title>Login</title>
<polygon fill="#ffffb3" stroke="black" points="790,-122 736,-122 736,-86 790,-86 790,-122"/>
<text text-anchor="middle" x="763" y="-99.8" font-family="Times,serif" font-size="14.00">Login</text>
</g>
<!-- Login&#45;&gt;AppModule -->
<g id="edge5" class="edge">
<title>Login&#45;&gt;AppModule</title>
<path fill="none" stroke="black" d="M763,-122.24C763,-137.57 763,-157 763,-157 763,-157 671.04,-157 671.04,-157"/>
<polygon fill="black" stroke="black" points="671.04,-153.5 661.04,-157 671.04,-160.5 671.04,-153.5"/>
</g>
<!-- Main -->
<g id="node6" class="node">
<title>Main</title>
<polygon fill="#ffffb3" stroke="black" points="718,-122 664,-122 664,-86 718,-86 718,-122"/>
<text text-anchor="middle" x="691" y="-99.8" font-family="Times,serif" font-size="14.00">Main</text>
</g>
<!-- Main&#45;&gt;AppModule -->
<g id="edge6" class="edge">
<title>Main&#45;&gt;AppModule</title>
<path fill="none" stroke="black" d="M663.68,-104C657.86,-104 653.41,-104 653.41,-104 653.41,-104 653.41,-140.89 653.41,-140.89"/>
<polygon fill="black" stroke="black" points="649.91,-140.89 653.41,-150.89 656.91,-140.89 649.91,-140.89"/>
</g>
<!-- Mapa -->
<g id="node7" class="node">
<title>Mapa</title>
<polygon fill="#ffffb3" stroke="black" points="646,-122 592,-122 592,-86 646,-86 646,-122"/>
<text text-anchor="middle" x="619" y="-99.8" font-family="Times,serif" font-size="14.00">Mapa</text>
</g>
<!-- Mapa&#45;&gt;AppModule -->
<g id="edge7" class="edge">
<title>Mapa&#45;&gt;AppModule</title>
<path fill="none" stroke="black" d="M619,-122.11C619,-122.11 619,-140.99 619,-140.99"/>
<polygon fill="black" stroke="black" points="615.5,-140.99 619,-150.99 622.5,-140.99 615.5,-140.99"/>
</g>
<!-- Nav -->
<g id="node8" class="node">
<title>Nav</title>
<polygon fill="#ffffb3" stroke="black" points="574,-122 520,-122 520,-86 574,-86 574,-122"/>
<text text-anchor="middle" x="547" y="-99.8" font-family="Times,serif" font-size="14.00">Nav</text>
</g>
<!-- Nav&#45;&gt;AppModule -->
<g id="edge8" class="edge">
<title>Nav&#45;&gt;AppModule</title>
<path fill="none" stroke="black" d="M574.32,-104C580.14,-104 584.59,-104 584.59,-104 584.59,-104 584.59,-140.89 584.59,-140.89"/>
<polygon fill="black" stroke="black" points="581.09,-140.89 584.59,-150.89 588.09,-140.89 581.09,-140.89"/>
</g>
<!-- Perfil -->
<g id="node9" class="node">
<title>Perfil</title>
<polygon fill="#ffffb3" stroke="black" points="502,-122 448,-122 448,-86 502,-86 502,-122"/>
<text text-anchor="middle" x="475" y="-99.8" font-family="Times,serif" font-size="14.00">Perfil</text>
</g>
<!-- Perfil&#45;&gt;AppModule -->
<g id="edge9" class="edge">
<title>Perfil&#45;&gt;AppModule</title>
<path fill="none" stroke="black" d="M475,-122.24C475,-137.57 475,-157 475,-157 475,-157 566.96,-157 566.96,-157"/>
<polygon fill="black" stroke="black" points="566.96,-160.5 576.96,-157 566.96,-153.5 566.96,-160.5"/>
</g>
<!-- Principal -->
<g id="node10" class="node">
<title>Principal</title>
<polygon fill="#ffffb3" stroke="black" points="430.05,-122 363.95,-122 363.95,-86 430.05,-86 430.05,-122"/>
<text text-anchor="middle" x="397" y="-99.8" font-family="Times,serif" font-size="14.00">Principal</text>
</g>
<!-- Principal&#45;&gt;AppModule -->
<g id="edge10" class="edge">
<title>Principal&#45;&gt;AppModule</title>
<path fill="none" stroke="black" d="M397,-122.02C397,-139.37 397,-163 397,-163 397,-163 567.24,-163 567.24,-163"/>
<polygon fill="black" stroke="black" points="567.24,-166.5 577.24,-163 567.24,-159.5 567.24,-166.5"/>
</g>
<!-- Registro -->
<g id="node11" class="node">
<title>Registro</title>
<polygon fill="#ffffb3" stroke="black" points="345.94,-122 282.06,-122 282.06,-86 345.94,-86 345.94,-122"/>
<text text-anchor="middle" x="314" y="-99.8" font-family="Times,serif" font-size="14.00">Registro</text>
</g>
<!-- Registro&#45;&gt;AppModule -->
<g id="edge11" class="edge">
<title>Registro&#45;&gt;AppModule</title>
<path fill="none" stroke="black" d="M314,-122.11C314,-141.34 314,-169 314,-169 314,-169 567.23,-169 567.23,-169"/>
<polygon fill="black" stroke="black" points="567.23,-172.5 577.23,-169 567.23,-165.5 567.23,-172.5"/>
</g>
<!-- UsuarioCrud -->
<g id="node12" class="node">
<title>UsuarioCrud</title>
<polygon fill="#ffffb3" stroke="black" points="264.31,-122 175.69,-122 175.69,-86 264.31,-86 264.31,-122"/>
<text text-anchor="middle" x="220" y="-99.8" font-family="Times,serif" font-size="14.00">UsuarioCrud</text>
</g>
<!-- UsuarioCrud&#45;&gt;AppModule -->
<g id="edge12" class="edge">
<title>UsuarioCrud&#45;&gt;AppModule</title>
<path fill="none" stroke="black" d="M220,-122.28C220,-143.32 220,-175 220,-175 220,-175 567.05,-175 567.05,-175"/>
<polygon fill="black" stroke="black" points="567.05,-178.5 577.05,-175 567.05,-171.5 567.05,-178.5"/>
</g>
<!-- App  -->
<g id="node15" class="node">
<title>App </title>
<polygon fill="#80b1d3" stroke="black" points="646,-252 592,-252 592,-216 646,-216 646,-252"/>
<text text-anchor="middle" x="619" y="-229.8" font-family="Times,serif" font-size="14.00">App </text>
</g>
<!-- AppModule&#45;&gt;App  -->
<g id="edge14" class="edge">
<title>AppModule&#45;&gt;App </title>
<path fill="none" stroke="black" stroke-dasharray="1,5" d="M619,-187.11C619,-187.11 619,-205.99 619,-205.99"/>
<polygon fill="black" stroke="black" points="615.5,-205.99 619,-215.99 622.5,-205.99 615.5,-205.99"/>
</g>
<!-- AppRoutingModule -->
<g id="node14" class="node">
<title>AppRoutingModule</title>
<polygon fill="#8dd3c7" stroke="black" points="152.27,-122 149.27,-126 128.27,-126 125.27,-122 23.73,-122 23.73,-86 152.27,-86 152.27,-122"/>
<text text-anchor="middle" x="88" y="-99.8" font-family="Times,serif" font-size="14.00">AppRoutingModule</text>
</g>
<!-- AppRoutingModule&#45;&gt;AppModule -->
<g id="edge13" class="edge">
<title>AppRoutingModule&#45;&gt;AppModule</title>
<path fill="none" stroke="black" d="M88,-122.25C88,-145.02 88,-181 88,-181 88,-181 567.33,-181 567.33,-181"/>
<polygon fill="black" stroke="black" points="567.33,-184.5 577.33,-181 567.33,-177.5 567.33,-184.5"/>
</g>
</g>
</svg>
