<?xml version="1.0" encoding="UTF-8" standalone="no"?>
<!DOCTYPE svg PUBLIC "-//W3C//DTD SVG 1.1//EN"
 "http://www.w3.org/Graphics/SVG/1.1/DTD/svg11.dtd">
<!-- Generated by graphviz version 2.47.0 (20210316.0004)
 -->
<!-- Title: dependencies Pages: 1 -->
<svg width="1284pt" height="284pt"
 viewBox="0.00 0.00 1284.00 284.00" xmlns="http://www.w3.org/2000/svg" xmlns:xlink="http://www.w3.org/1999/xlink">
<g id="graph0" class="graph" transform="scale(1 1) rotate(0) translate(4 280)">
<title>dependencies</title>
<polygon fill="white" stroke="transparent" points="-4,4 -4,-280 1280,-280 1280,4 -4,4"/>
<text text-anchor="start" x="617.01" y="-42.4" font-family="Times-12" font-weight="bold" font-size="14.00">Legend</text>
<polygon fill="#ffffb3" stroke="transparent" points="404,-10 404,-30 424,-30 424,-10 404,-10"/>
<text text-anchor="start" x="427.63" y="-15.4" font-family="Times-12" font-size="14.00"> &#160;Declarations</text>
<polygon fill="#8dd3c7" stroke="transparent" points="517,-10 517,-30 537,-30 537,-10 517,-10"/>
<text text-anchor="start" x="540.73" y="-15.4" font-family="Times-12" font-size="14.00"> &#160;Module</text>
<polygon fill="#80b1d3" stroke="transparent" points="603,-10 603,-30 623,-30 623,-10 603,-10"/>
<text text-anchor="start" x="626.78" y="-15.4" font-family="Times-12" font-size="14.00"> &#160;Bootstrap</text>
<polygon fill="#fdb462" stroke="transparent" points="700,-10 700,-30 720,-30 720,-10 700,-10"/>
<text text-anchor="start" x="723.67" y="-15.4" font-family="Times-12" font-size="14.00"> &#160;Providers</text>
<polygon fill="#fb8072" stroke="transparent" points="796,-10 796,-30 816,-30 816,-10 796,-10"/>
<text text-anchor="start" x="819.73" y="-15.4" font-family="Times-12" font-size="14.00"> &#160;Exports</text>
<g id="clust1" class="cluster">
<title>cluster_AppModule</title>
<polygon fill="none" stroke="black" stroke-dasharray="1,5" points="8,-70 8,-268 1268,-268 1268,-70 8,-70"/>
</g>
<g id="clust15" class="cluster">
<title>cluster_AppModule_imports</title>
<polygon fill="none" stroke="black" points="1116,-78 1116,-130 1260,-130 1260,-78 1116,-78"/>
</g>
<g id="clust17" class="cluster">
<title>cluster_AppModule_bootstrap</title>
<polygon fill="none" stroke="black" points="504,-208 504,-260 574,-260 574,-208 504,-208"/>
</g>
<g id="clust2" class="cluster">
<title>cluster_AppModule_declarations</title>
<polygon fill="none" stroke="black" points="16,-78 16,-130 1108,-130 1108,-78 16,-78"/>
</g>
<!-- App -->
<g id="node1" class="node">
<title>App</title>
<polygon fill="#ffffb3" stroke="black" points="1100,-122 1046,-122 1046,-86 1100,-86 1100,-122"/>
<text text-anchor="middle" x="1073" y="-99.8" font-family="Times,serif" font-size="14.00">App</text>
</g>
<!-- AppModule -->
<g id="node13" class="node">
<title>AppModule</title>
<polygon fill="#8dd3c7" stroke="black" points="580.66,-187 577.66,-191 556.66,-191 553.66,-187 497.34,-187 497.34,-151 580.66,-151 580.66,-187"/>
<text text-anchor="middle" x="539" y="-164.8" font-family="Times,serif" font-size="14.00">AppModule</text>
</g>
<!-- App&#45;&gt;AppModule -->
<g id="edge1" class="edge">
<title>App&#45;&gt;AppModule</title>
<path fill="none" stroke="black" d="M1073,-122.28C1073,-143.32 1073,-175 1073,-175 1073,-175 590.9,-175 590.9,-175"/>
<polygon fill="black" stroke="black" points="590.9,-171.5 580.9,-175 590.9,-178.5 590.9,-171.5"/>
</g>
<!-- AuditoriaComponent -->
<g id="node2" class="node">
<title>AuditoriaComponent</title>
<polygon fill="#ffffb3" stroke="black" points="1028.49,-122 893.51,-122 893.51,-86 1028.49,-86 1028.49,-122"/>
<text text-anchor="middle" x="961" y="-99.8" font-family="Times,serif" font-size="14.00">AuditoriaComponent</text>
</g>
<!-- AuditoriaComponent&#45;&gt;AppModule -->
<g id="edge2" class="edge">
<title>AuditoriaComponent&#45;&gt;AppModule</title>
<path fill="none" stroke="black" d="M961,-122.11C961,-141.34 961,-169 961,-169 961,-169 591.01,-169 591.01,-169"/>
<polygon fill="black" stroke="black" points="591.01,-165.5 581.01,-169 591.01,-172.5 591.01,-165.5"/>
</g>
<!-- Busqueda -->
<g id="node3" class="node">
<title>Busqueda</title>
<polygon fill="#ffffb3" stroke="black" points="875.71,-122 804.29,-122 804.29,-86 875.71,-86 875.71,-122"/>
<text text-anchor="middle" x="840" y="-99.8" font-family="Times,serif" font-size="14.00">Busqueda</text>
</g>
<!-- Busqueda&#45;&gt;AppModule -->
<g id="edge3" class="edge">
<title>Busqueda&#45;&gt;AppModule</title>
<path fill="none" stroke="black" d="M840,-122.02C840,-139.37 840,-163 840,-163 840,-163 590.85,-163 590.85,-163"/>
<polygon fill="black" stroke="black" points="590.85,-159.5 580.85,-163 590.85,-166.5 590.85,-159.5"/>
</g>
<!-- HistorialComponent -->
<g id="node4" class="node">
<title>HistorialComponent</title>
<polygon fill="#ffffb3" stroke="black" points="786.32,-122 655.68,-122 655.68,-86 786.32,-86 786.32,-122"/>
<text text-anchor="middle" x="721" y="-99.8" font-family="Times,serif" font-size="14.00">HistorialComponent</text>
</g>
<!-- HistorialComponent&#45;&gt;AppModule -->
<g id="edge4" class="edge">
<title>HistorialComponent&#45;&gt;AppModule</title>
<path fill="none" stroke="black" d="M721,-122.24C721,-137.57 721,-157 721,-157 721,-157 590.75,-157 590.75,-157"/>
<polygon fill="black" stroke="black" points="590.75,-153.5 580.75,-157 590.75,-160.5 590.75,-153.5"/>
</g>
<!-- Login -->
<g id="node5" class="node">
<title>Login</title>
<polygon fill="#ffffb3" stroke="black" points="638,-122 584,-122 584,-86 638,-86 638,-122"/>
<text text-anchor="middle" x="611" y="-99.8" font-family="Times,serif" font-size="14.00">Login</text>
</g>
<!-- Login&#45;&gt;AppModule -->
<g id="edge5" class="edge">
<title>Login&#45;&gt;AppModule</title>
<path fill="none" stroke="black" d="M583.68,-104C577.86,-104 573.41,-104 573.41,-104 573.41,-104 573.41,-140.89 573.41,-140.89"/>
<polygon fill="black" stroke="black" points="569.91,-140.89 573.41,-150.89 576.91,-140.89 569.91,-140.89"/>
</g>
<!-- Main -->
<g id="node6" class="node">
<title>Main</title>
<polygon fill="#ffffb3" stroke="black" points="566,-122 512,-122 512,-86 566,-86 566,-122"/>
<text text-anchor="middle" x="539" y="-99.8" font-family="Times,serif" font-size="14.00">Main</text>
</g>
<!-- Main&#45;&gt;AppModule -->
<g id="edge6" class="edge">
<title>Main&#45;&gt;AppModule</title>
<path fill="none" stroke="black" d="M539,-122.11C539,-122.11 539,-140.99 539,-140.99"/>
<polygon fill="black" stroke="black" points="535.5,-140.99 539,-150.99 542.5,-140.99 535.5,-140.99"/>
</g>
<!-- Mapa -->
<g id="node7" class="node">
<title>Mapa</title>
<polygon fill="#ffffb3" stroke="black" points="494,-122 440,-122 440,-86 494,-86 494,-122"/>
<text text-anchor="middle" x="467" y="-99.8" font-family="Times,serif" font-size="14.00">Mapa</text>
</g>
<!-- Mapa&#45;&gt;AppModule -->
<g id="edge7" class="edge">
<title>Mapa&#45;&gt;AppModule</title>
<path fill="none" stroke="black" d="M494.32,-104C500.14,-104 504.59,-104 504.59,-104 504.59,-104 504.59,-140.89 504.59,-140.89"/>
<polygon fill="black" stroke="black" points="501.09,-140.89 504.59,-150.89 508.09,-140.89 501.09,-140.89"/>
</g>
<!-- Nav -->
<g id="node8" class="node">
<title>Nav</title>
<polygon fill="#ffffb3" stroke="black" points="422,-122 368,-122 368,-86 422,-86 422,-122"/>
<text text-anchor="middle" x="395" y="-99.8" font-family="Times,serif" font-size="14.00">Nav</text>
</g>
<!-- Nav&#45;&gt;AppModule -->
<g id="edge8" class="edge">
<title>Nav&#45;&gt;AppModule</title>
<path fill="none" stroke="black" d="M395,-122.24C395,-137.57 395,-157 395,-157 395,-157 486.96,-157 486.96,-157"/>
<polygon fill="black" stroke="black" points="486.96,-160.5 496.96,-157 486.96,-153.5 486.96,-160.5"/>
</g>
<!-- Perfil -->
<g id="node9" class="node">
<title>Perfil</title>
<polygon fill="#ffffb3" stroke="black" points="350,-122 296,-122 296,-86 350,-86 350,-122"/>
<text text-anchor="middle" x="323" y="-99.8" font-family="Times,serif" font-size="14.00">Perfil</text>
</g>
<!-- Perfil&#45;&gt;AppModule -->
<g id="edge9" class="edge">
<title>Perfil&#45;&gt;AppModule</title>
<path fill="none" stroke="black" d="M323,-122.02C323,-139.37 323,-163 323,-163 323,-163 487.1,-163 487.1,-163"/>
<polygon fill="black" stroke="black" points="487.1,-166.5 497.1,-163 487.1,-159.5 487.1,-166.5"/>
</g>
<!-- Principal -->
<g id="node10" class="node">
<title>Principal</title>
<polygon fill="#ffffb3" stroke="black" points="278.05,-122 211.95,-122 211.95,-86 278.05,-86 278.05,-122"/>
<text text-anchor="middle" x="245" y="-99.8" font-family="Times,serif" font-size="14.00">Principal</text>
</g>
<!-- Principal&#45;&gt;AppModule -->
<g id="edge10" class="edge">
<title>Principal&#45;&gt;AppModule</title>
<path fill="none" stroke="black" d="M245,-122.11C245,-141.34 245,-169 245,-169 245,-169 487.19,-169 487.19,-169"/>
<polygon fill="black" stroke="black" points="487.19,-172.5 497.19,-169 487.19,-165.5 487.19,-172.5"/>
</g>
<!-- Registro -->
<g id="node11" class="node">
<title>Registro</title>
<polygon fill="#ffffb3" stroke="black" points="193.94,-122 130.06,-122 130.06,-86 193.94,-86 193.94,-122"/>
<text text-anchor="middle" x="162" y="-99.8" font-family="Times,serif" font-size="14.00">Registro</text>
</g>
<!-- Registro&#45;&gt;AppModule -->
<g id="edge11" class="edge">
<title>Registro&#45;&gt;AppModule</title>
<path fill="none" stroke="black" d="M162,-122.28C162,-143.32 162,-175 162,-175 162,-175 487.21,-175 487.21,-175"/>
<polygon fill="black" stroke="black" points="487.21,-178.5 497.21,-175 487.21,-171.5 487.21,-178.5"/>
</g>
<!-- UsuarioCrud -->
<g id="node12" class="node">
<title>UsuarioCrud</title>
<polygon fill="#ffffb3" stroke="black" points="112.31,-122 23.69,-122 23.69,-86 112.31,-86 112.31,-122"/>
<text text-anchor="middle" x="68" y="-99.8" font-family="Times,serif" font-size="14.00">UsuarioCrud</text>
</g>
<!-- UsuarioCrud&#45;&gt;AppModule -->
<g id="edge12" class="edge">
<title>UsuarioCrud&#45;&gt;AppModule</title>
<path fill="none" stroke="black" d="M68,-122.25C68,-145.02 68,-181 68,-181 68,-181 487.2,-181 487.2,-181"/>
<polygon fill="black" stroke="black" points="487.2,-184.5 497.2,-181 487.2,-177.5 487.2,-184.5"/>
</g>
<!-- App  -->
<g id="node15" class="node">
<title>App </title>
<polygon fill="#80b1d3" stroke="black" points="566,-252 512,-252 512,-216 566,-216 566,-252"/>
<text text-anchor="middle" x="539" y="-229.8" font-family="Times,serif" font-size="14.00">App </text>
</g>
<!-- AppModule&#45;&gt;App  -->
<g id="edge14" class="edge">
<title>AppModule&#45;&gt;App </title>
<path fill="none" stroke="black" stroke-dasharray="1,5" d="M539,-187.11C539,-187.11 539,-205.99 539,-205.99"/>
<polygon fill="black" stroke="black" points="535.5,-205.99 539,-215.99 542.5,-205.99 535.5,-205.99"/>
</g>
<!-- AppRoutingModule -->
<g id="node14" class="node">
<title>AppRoutingModule</title>
<polygon fill="#8dd3c7" stroke="black" points="1252.27,-122 1249.27,-126 1228.27,-126 1225.27,-122 1123.73,-122 1123.73,-86 1252.27,-86 1252.27,-122"/>
<text text-anchor="middle" x="1188" y="-99.8" font-family="Times,serif" font-size="14.00">AppRoutingModule</text>
</g>
<!-- AppRoutingModule&#45;&gt;AppModule -->
<g id="edge13" class="edge">
<title>AppRoutingModule&#45;&gt;AppModule</title>
<path fill="none" stroke="black" d="M1188,-122.25C1188,-145.02 1188,-181 1188,-181 1188,-181 591.08,-181 591.08,-181"/>
<polygon fill="black" stroke="black" points="591.08,-177.5 581.08,-181 591.08,-184.5 591.08,-177.5"/>
</g>
</g>
</svg>
